<svg id="Layer_1" height="512" viewBox="0 0 64 64" width="512" xmlns="http://www.w3.org/2000/svg"><g stroke="#000" stroke-linecap="round" stroke-linejoin="round" stroke-miterlimit="10" stroke-width="2"><ellipse cx="53.4" cy="44.8" fill="#fff" rx="9.6" ry="9.5"/><circle cx="10.6" cy="44.8" fill="#fff" r="9.6"/><path d="m50.9 35.6-8.1-23.2" fill="none"/><path d="m48.1 27.6-19.7 17.2h-8.3" fill="none"/><path d="m28.4 44.8v-17.2" fill="none"/><path d="m32.9 27.6h-9c-1.1 0-2-.9-2-2v-.4c0-1.1.9-2 2-2h9c1.1 0 2 .9 2 2v.4c0 1.1-.9 2-2 2z" fill="#fff"/><path d="" fill="#fff"/><g fill="none"><path d="m37 14.4 11.5-3.9"/><path d="m10.6 35.2v19.2"/><path d="m20.1 44.8h-19.1"/><path d="m17.3 51.6-13.5-13.6"/><path d="m3.8 51.6 13.5-13.6"/><path d="m53.4 35.3v19"/><path d="m63 44.8h-19.1"/><path d="m60.2 51.6-13.5-13.6"/><path d="m46.7 51.6 13.5-13.6"/></g></g></svg>